<svg width="12" height="12" viewBox="0 0 12 12" fill="none" xmlns="http://www.w3.org/2000/svg">
<g clip-path="url(#clip0_2823_1905)">
<path d="M10.6153 0.923077H9.23066V0.461538C9.23066 0.339131 9.18203 0.221737 9.09548 0.135181C9.00892 0.0486262 8.89153 0 8.76912 0C8.64671 0 8.52932 0.0486262 8.44276 0.135181C8.35621 0.221737 8.30758 0.339131 8.30758 0.461538V0.923077H3.69219V0.461538C3.69219 0.339131 3.64357 0.221737 3.55701 0.135181C3.47046 0.0486262 3.35306 0 3.23066 0C3.10825 0 2.99085 0.0486262 2.9043 0.135181C2.81774 0.221737 2.76912 0.339131 2.76912 0.461538V0.923077H1.3845C1.13969 0.923077 0.904899 1.02033 0.731789 1.19344C0.558678 1.36655 0.461426 1.60134 0.461426 1.84615V11.0769C0.461426 11.3217 0.558678 11.5565 0.731789 11.7296C0.904899 11.9027 1.13969 12 1.3845 12H10.6153C10.8601 12 11.0949 11.9027 11.268 11.7296C11.4411 11.5565 11.5383 11.3217 11.5383 11.0769V1.84615C11.5383 1.60134 11.4411 1.36655 11.268 1.19344C11.0949 1.02033 10.8601 0.923077 10.6153 0.923077ZM2.76912 1.84615V2.30769C2.76912 2.4301 2.81774 2.54749 2.9043 2.63405C2.99085 2.7206 3.10825 2.76923 3.23066 2.76923C3.35306 2.76923 3.47046 2.7206 3.55701 2.63405C3.64357 2.54749 3.69219 2.4301 3.69219 2.30769V1.84615H8.30758V2.30769C8.30758 2.4301 8.35621 2.54749 8.44276 2.63405C8.52932 2.7206 8.64671 2.76923 8.76912 2.76923C8.89153 2.76923 9.00892 2.7206 9.09548 2.63405C9.18203 2.54749 9.23066 2.4301 9.23066 2.30769V1.84615H10.6153V3.69231H1.3845V1.84615H2.76912ZM10.6153 11.0769H1.3845V4.61538H10.6153V11.0769Z" fill="#727272"/>
</g>
<defs>
<clipPath id="clip0_2823_1905">
<rect width="11.0769" height="12" fill="white" transform="translate(0.461426)"/>
</clipPath>
</defs>
</svg>
