<svg width="164" height="35" viewBox="0 0 164 35" fill="none" xmlns="http://www.w3.org/2000/svg">
<path d="M158.863 21.2822C157.781 21.2822 156.8 21.1091 155.92 20.763C155.055 20.4024 154.312 19.8543 153.692 19.1187L155.12 17.4961C155.596 18.0298 156.151 18.4769 156.786 18.8375C157.42 19.1836 158.163 19.3567 159.014 19.3567C159.605 19.3567 160.074 19.2413 160.42 19.0106C160.781 18.7798 160.961 18.4625 160.961 18.0586C160.961 17.8134 160.875 17.5971 160.702 17.4096C160.528 17.2077 160.19 17.0562 159.685 16.9553L157.413 16.5009C156.259 16.2846 155.437 15.9096 154.947 15.3759C154.471 14.8423 154.233 14.1932 154.233 13.4288C154.233 12.8086 154.406 12.2461 154.752 11.7413C155.098 11.222 155.603 10.811 156.266 10.5081C156.93 10.1908 157.723 10.0321 158.646 10.0321C159.685 10.0321 160.572 10.2052 161.307 10.5513C162.043 10.8831 162.677 11.3663 163.211 12.0009L161.762 13.537C161.372 13.0177 160.896 12.6211 160.334 12.347C159.786 12.073 159.223 11.936 158.646 11.936C157.954 11.936 157.427 12.0586 157.067 12.3038C156.706 12.5345 156.526 12.8518 156.526 13.2557C156.526 13.5297 156.62 13.7749 156.807 13.9913C156.995 14.1932 157.355 14.3519 157.889 14.4672L160.464 14.9865C161.488 15.2028 162.216 15.549 162.649 16.025C163.081 16.5009 163.298 17.0851 163.298 17.7774C163.298 18.8303 162.908 19.6812 162.129 20.3303C161.351 20.9649 160.262 21.2822 158.863 21.2822Z" fill="#FAFAFA"/>
<path d="M148.161 21.2824C147.296 21.2824 146.546 21.0804 145.911 20.6766C145.277 20.2727 144.808 19.7246 144.505 19.0323L144.397 21.066L142.363 21.066L142.363 5.83508L144.678 5.83508L144.678 11.8928C145.024 11.3448 145.514 10.8976 146.149 10.5515C146.784 10.2053 147.498 10.0322 148.291 10.0322C149.185 10.0322 149.986 10.2558 150.692 10.7029C151.414 11.15 151.976 11.7919 152.38 12.6284C152.784 13.465 152.986 14.4818 152.986 15.6789C152.986 16.8616 152.769 17.8713 152.337 18.7078C151.904 19.5444 151.32 20.1862 150.584 20.6333C149.849 21.066 149.041 21.2824 148.161 21.2824ZM147.664 19.292C148.615 19.292 149.344 18.9746 149.849 18.34C150.368 17.691 150.627 16.7967 150.627 15.6573C150.627 14.5179 150.375 13.6236 149.87 12.9746C149.365 12.3255 148.637 12.001 147.685 12.001C146.791 12.001 146.063 12.34 145.5 13.0178C144.952 13.6813 144.678 14.5756 144.678 15.7006C144.678 16.8256 144.952 17.7054 145.5 18.34C146.063 18.9746 146.784 19.292 147.664 19.292Z" fill="#FAFAFA"/>
<path d="M137.281 13.9913C137.281 13.2845 137.064 12.7581 136.632 12.4119C136.199 12.0658 135.644 11.8927 134.966 11.8927C134.23 11.8927 133.653 12.0369 133.235 12.3254C132.831 12.5994 132.521 13.0321 132.305 13.6235L130.206 12.9961C130.509 12.073 131.057 11.3518 131.851 10.8326C132.644 10.2989 133.711 10.0321 135.052 10.0321C135.889 10.0321 136.646 10.1619 137.324 10.4215C138.016 10.6812 138.564 11.0778 138.968 11.6115C139.387 12.1451 139.596 12.8302 139.596 13.6668L139.596 18.6211C139.596 19.1548 139.87 19.4216 140.418 19.4216C140.504 19.4216 140.591 19.4216 140.677 19.4216C140.778 19.4216 140.865 19.4072 140.937 19.3784L140.829 21.0226C140.569 21.1524 140.216 21.2245 139.769 21.239C139.206 21.239 138.723 21.1236 138.319 20.8928C137.915 20.6476 137.634 20.2798 137.476 19.7894C137.115 20.2942 136.625 20.6692 136.004 20.9144C135.399 21.1596 134.75 21.2822 134.057 21.2822C132.831 21.2822 131.887 20.9793 131.223 20.3736C130.56 19.7678 130.228 18.9457 130.228 17.9072C130.228 16.8831 130.581 16.0754 131.288 15.4841C132.009 14.8783 132.99 14.5754 134.23 14.5754L137.281 14.5754L137.281 13.9913ZM134.577 19.4865C134.98 19.4865 135.391 19.4144 135.81 19.2702C136.228 19.1259 136.574 18.888 136.848 18.5562C137.137 18.2101 137.281 17.7485 137.281 17.1716L137.281 16.3062L134.728 16.3062C133.257 16.3062 132.521 16.7966 132.521 17.7774C132.521 18.2678 132.673 18.6788 132.976 19.0106C133.293 19.3279 133.827 19.4865 134.577 19.4865Z" fill="#FAFAFA"/>
<path d="M120.903 18.9025L129.362 18.9025L129.362 21.066L118.523 21.066L118.523 5.83508L120.903 5.83508L120.903 18.9025Z" fill="#FAFAFA"/>
<path d="M108.742 13.9913C108.742 13.2845 108.526 12.7581 108.093 12.4119C107.66 12.0658 107.105 11.8927 106.427 11.8927C105.692 11.8927 105.115 12.0369 104.696 12.3254C104.292 12.5994 103.982 13.0321 103.766 13.6235L101.667 12.9961C101.97 12.073 102.518 11.3518 103.312 10.8326C104.105 10.2989 105.172 10.0321 106.514 10.0321C107.35 10.0321 108.107 10.1619 108.785 10.4215C109.478 10.6812 110.026 11.0778 110.43 11.6115C110.848 12.1451 111.057 12.8302 111.057 13.6668L111.057 18.6211C111.057 19.1548 111.331 19.4216 111.879 19.4216C111.966 19.4216 112.052 19.4216 112.139 19.4216C112.24 19.4216 112.326 19.4072 112.398 19.3784L112.29 21.0226C112.03 21.1524 111.677 21.2245 111.23 21.239C110.668 21.239 110.184 21.1236 109.78 20.8928C109.377 20.6476 109.095 20.2798 108.937 19.7894C108.576 20.2942 108.086 20.6692 107.466 20.9144C106.86 21.1596 106.211 21.2822 105.518 21.2822C104.292 21.2822 103.348 20.9793 102.684 20.3736C102.021 19.7678 101.689 18.9457 101.689 17.9072C101.689 16.8831 102.042 16.0754 102.749 15.4841C103.47 14.8783 104.451 14.5754 105.692 14.5754L108.742 14.5754L108.742 13.9913ZM106.038 19.4865C106.442 19.4865 106.853 19.4144 107.271 19.2702C107.689 19.1259 108.035 18.888 108.309 18.5562C108.598 18.2101 108.742 17.7485 108.742 17.1716L108.742 16.3062L106.189 16.3062C104.718 16.3062 103.982 16.7966 103.982 17.7774C103.982 18.2678 104.134 18.6788 104.437 19.0106C104.754 19.3279 105.288 19.4865 106.038 19.4865Z" fill="#FAFAFA"/>
<path d="M90.4089 21.0659L90.4089 10.2485L92.4642 10.2485L92.5508 12.0441C92.9258 11.3518 93.4234 10.847 94.0436 10.5297C94.6782 10.198 95.3849 10.0321 96.1638 10.0321C96.9426 10.0321 97.6421 10.1836 98.2623 10.4864C98.8825 10.7749 99.3729 11.222 99.7335 11.8278C100.108 12.4192 100.296 13.1764 100.296 14.0995L100.296 21.0659L97.9811 21.0659L97.9811 14.7701C97.9811 13.7605 97.7575 13.0538 97.3104 12.6499C96.8633 12.2461 96.308 12.0441 95.6445 12.0441C95.183 12.0441 94.7214 12.1523 94.2599 12.3687C93.8128 12.585 93.445 12.9312 93.1565 13.4071C92.8681 13.8831 92.7238 14.5177 92.7238 15.311L92.7238 21.0659L90.4089 21.0659Z" fill="#FAFAFA"/>
<path d="M81.9533 21.2822C81.2321 21.2822 80.5687 21.1524 79.9629 20.8928C79.3715 20.6187 78.8956 20.1932 78.535 19.6163C78.1744 19.0394 77.9941 18.2966 77.9941 17.3879L77.9941 10.2484L80.3091 10.2484L80.3091 16.7821C80.3091 17.7196 80.5182 18.3687 80.9365 18.7293C81.3547 19.0899 81.9389 19.2701 82.6889 19.2701C83.1793 19.2701 83.6408 19.162 84.0735 18.9456C84.5062 18.7148 84.8595 18.3687 85.1336 17.9071C85.4076 17.4456 85.5446 16.8398 85.5446 16.0898L85.5446 10.2484L87.8596 10.2484L87.8596 21.0658L85.8043 21.0658L85.6961 19.335C85.3211 20.0129 84.8163 20.5105 84.1817 20.8279C83.5615 21.1307 82.8187 21.2822 81.9533 21.2822Z" fill="#FAFAFA"/>
<path d="M65.9885 21.066L65.9885 5.83508L68.3034 5.83508L68.3034 12.001C68.664 11.3231 69.1472 10.8255 69.753 10.5082C70.3732 10.1909 71.0583 10.0322 71.8083 10.0322C72.5727 10.0322 73.2578 10.1837 73.8636 10.4866C74.4837 10.775 74.9741 11.2149 75.3347 11.8063C75.6953 12.3977 75.8756 13.1404 75.8756 14.0347L75.8756 21.066L73.5607 21.066L73.5607 14.7919C73.5607 13.7679 73.3371 13.0539 72.89 12.6501C72.4429 12.2462 71.8948 12.0443 71.2458 12.0443C70.7698 12.0443 70.3082 12.1525 69.8611 12.3688C69.414 12.5852 69.039 12.9385 68.7361 13.4289C68.4477 13.9049 68.3034 14.5467 68.3034 15.3544L68.3034 21.066L65.9885 21.066Z" fill="#FAFAFA"/>
<path d="M60.7508 13.9913C60.7508 13.2845 60.5345 12.7581 60.1018 12.4119C59.6691 12.0658 59.1138 11.8927 58.4359 11.8927C57.7003 11.8927 57.1234 12.0369 56.7051 12.3254C56.3013 12.5994 55.9912 13.0321 55.7748 13.6235L53.6763 12.9961C53.9792 12.073 54.5272 11.3518 55.3205 10.8326C56.1138 10.2989 57.1811 10.0321 58.5224 10.0321C59.359 10.0321 60.1162 10.1619 60.7941 10.4215C61.4864 10.6812 62.0345 11.0778 62.4383 11.6115C62.8566 12.1451 63.0657 12.8302 63.0657 13.6668L63.0657 18.6211C63.0657 19.1548 63.3398 19.4216 63.8878 19.4216C63.9744 19.4216 64.0609 19.4216 64.1475 19.4216C64.2484 19.4216 64.335 19.4072 64.4071 19.3784L64.2989 21.0226C64.0393 21.1524 63.6859 21.2245 63.2388 21.239C62.6763 21.239 62.1931 21.1236 61.7893 20.8928C61.3854 20.6476 61.1042 20.2798 60.9455 19.7894C60.5849 20.2942 60.0946 20.6692 59.4744 20.9144C58.8686 21.1596 58.2196 21.2822 57.5272 21.2822C56.3013 21.2822 55.3566 20.9793 54.6931 20.3736C54.0296 19.7678 53.6979 18.9457 53.6979 17.9072C53.6979 16.8831 54.0513 16.0754 54.758 15.4841C55.4792 14.8783 56.4599 14.5754 57.7003 14.5754L60.7508 14.5754L60.7508 13.9913ZM58.0465 19.4865C58.4503 19.4865 58.8614 19.4144 59.2797 19.2702C59.6979 19.1259 60.0441 18.888 60.3181 18.5562C60.6066 18.2101 60.7508 17.7485 60.7508 17.1716L60.7508 16.3062L58.1979 16.3062C56.7268 16.3062 55.9912 16.7966 55.9912 17.7774C55.9912 18.2678 56.1426 18.6788 56.4455 19.0106C56.7628 19.3279 57.2965 19.4865 58.0465 19.4865Z" fill="#FAFAFA"/>
<path d="M43.2652 5.83508L43.2652 13.6453L50.2315 5.83508L53.044 5.83509L47.5056 12.0876L53.4335 21.066L50.5777 21.066L45.8613 13.7534L43.2652 16.6309L43.2652 21.066L40.907 21.066L40.907 5.83508L43.2652 5.83508Z" fill="#FAFAFA"/>
<path d="M16.7054 0.400024V8.88531L11.137 12.0673V0.400024H16.7054Z" fill="#0632F9"/>
<path d="M29.6992 7.82505L16.7061 15.2497V8.88571L24.1307 4.64307L29.6992 7.82505Z" fill="#FAFAFA"/>
<path d="M5.56847 15.2482L11.1369 18.4302L0 24.7941V18.4302L5.56847 15.2482Z" fill="#FAFAFA"/>
<path d="M29.6985 22.6728L16.7054 15.2482L11.137 18.4302L24.1301 25.8548L29.6985 22.6728Z" fill="#FAFAFA"/>
<path d="M11.1369 12.0678V18.4318L0 12.0678V5.70386L11.1369 12.0678Z" fill="#0632F9"/>
<path d="M11.137 33.2809L16.7054 30.0989V21.6136L11.137 18.4316V33.2809Z" fill="#0632F9"/>
<path d="M41.0381 26.5049H45.3356V27.2199H43.5805V31.5896H42.7932V27.2199H41.0381V26.5049ZM46.63 31.5896H45.8571V26.5049H46.63V28.5633C46.8755 28.1083 47.2944 27.9061 47.8 27.9061C48.5584 27.9061 49.1579 28.3466 49.1579 29.2422V31.5896H48.3851V29.495C48.3851 28.8089 48.0528 28.5778 47.6122 28.5778C47.1355 28.5778 46.63 28.8811 46.63 29.6828V31.5896ZM53.3454 29.5528C53.3454 29.7262 53.3309 29.8706 53.3165 29.979H50.6658C50.7163 30.629 51.0991 31.019 51.7203 31.019C52.2042 31.019 52.4787 30.8023 52.652 30.4918L53.2732 30.8023C53.0204 31.3368 52.4425 31.6618 51.7131 31.6618C50.6369 31.6618 49.9002 30.9612 49.9002 29.7912C49.9002 28.6066 50.6369 27.9061 51.6842 27.9061C52.7315 27.9061 53.3454 28.6211 53.3454 29.5528ZM50.6874 29.4156H52.5581C52.5437 28.845 52.2042 28.5416 51.6697 28.5416C51.1425 28.5416 50.7813 28.845 50.6874 29.4156ZM60.024 26.5049V27.2271H57.1494V28.7222H59.4101V29.43H57.1494V31.5896H56.3549V26.5049H60.024ZM61.1458 31.5896H60.373V27.9783H61.0591L61.1024 28.6066C61.283 28.1877 61.6514 27.9061 62.2075 27.9061C62.3158 27.9061 62.4531 27.9205 62.547 27.9566L62.4603 28.6861C62.3592 28.6644 62.2508 28.6428 62.0703 28.6428C61.608 28.6428 61.1458 28.9894 61.1458 29.7045V31.5896ZM64.5147 27.9061C65.5692 27.9061 66.3204 28.6066 66.3204 29.7839C66.3204 30.9612 65.5692 31.6618 64.5147 31.6618C63.453 31.6618 62.7091 30.9612 62.7091 29.7839C62.7091 28.6066 63.453 27.9061 64.5147 27.9061ZM64.5147 28.5489C63.8792 28.5489 63.4964 28.9894 63.4964 29.7839C63.4964 30.5784 63.8792 31.019 64.5147 31.019C65.1503 31.019 65.5331 30.5784 65.5331 29.7839C65.5331 28.9894 65.1503 28.5489 64.5147 28.5489ZM69.016 27.9061C69.7889 27.9061 70.3956 28.3466 70.3956 29.2639V31.5896H69.6227V29.4878C69.6227 28.8089 69.2833 28.5778 68.8427 28.5778C68.3732 28.5778 67.8676 28.8739 67.8676 29.6684V31.5896H67.0948V27.9783H67.781L67.8098 28.585C68.0554 28.1227 68.496 27.9061 69.016 27.9061ZM73.5442 30.7807L73.7464 31.3801C73.5081 31.5463 73.1758 31.6618 72.8147 31.6618C72.143 31.6618 71.6446 31.3513 71.6446 30.564V28.6211H70.879V27.9783H71.6446V26.8949H72.403V27.9783H73.6092V28.6211H72.403V30.4484C72.403 30.7879 72.5691 30.9757 72.9158 30.9757C73.183 30.9757 73.3708 30.9034 73.5442 30.7807ZM74.2182 26.5049H74.991V30.5062C74.991 30.8529 75.1355 30.9685 75.3594 30.9685C75.5327 30.9685 75.6483 30.9323 75.7566 30.8746L75.8938 31.5102C75.6916 31.604 75.4605 31.6618 75.2005 31.6618C74.5504 31.6618 74.2182 31.3224 74.2182 30.6434V26.5049ZM76.7036 26.4471C77.0069 26.4471 77.2092 26.6421 77.2092 26.9454C77.2092 27.2488 77.0069 27.4438 76.7036 27.4438C76.4002 27.4438 76.198 27.2488 76.198 26.9454C76.198 26.6421 76.4002 26.4471 76.7036 26.4471ZM76.3135 27.9783H77.0864V31.5896H76.3135V27.9783ZM80.0193 27.9061C80.7921 27.9061 81.3988 28.3466 81.3988 29.2639V31.5896H80.626V29.4878C80.626 28.8089 80.2865 28.5778 79.8459 28.5778C79.3765 28.5778 78.8709 28.8739 78.8709 29.6684V31.5896H78.098V27.9783H78.7842L78.8131 28.585C79.0587 28.1227 79.4992 27.9061 80.0193 27.9061ZM85.5792 29.5528C85.5792 29.7262 85.5648 29.8706 85.5504 29.979H82.8996C82.9502 30.629 83.333 31.019 83.9541 31.019C84.4381 31.019 84.7125 30.8023 84.8859 30.4918L85.507 30.8023C85.2542 31.3368 84.6764 31.6618 83.9469 31.6618C82.8707 31.6618 82.134 30.9612 82.134 29.7912C82.134 28.6066 82.8707 27.9061 83.918 27.9061C84.9653 27.9061 85.5792 28.6211 85.5792 29.5528ZM82.9213 29.4156H84.792C84.7775 28.845 84.4381 28.5416 83.9036 28.5416C83.3763 28.5416 83.0152 28.845 82.9213 29.4156ZM88.5888 26.5049H90.6689C91.7523 26.5049 92.3951 27.1188 92.3951 28.1083C92.3951 29.105 91.7523 29.7189 90.6689 29.7189H89.3833V31.5896H88.5888V26.5049ZM89.3833 28.9967H90.5461C91.2106 28.9967 91.5789 28.7511 91.5789 28.1083C91.5789 27.4655 91.2034 27.2199 90.5461 27.2199H89.3833V28.9967ZM93.8028 31.5896H93.03V27.9783H93.7162L93.7595 28.6066C93.9401 28.1877 94.3084 27.9061 94.8646 27.9061C94.9729 27.9061 95.1101 27.9205 95.204 27.9566L95.1174 28.6861C95.0162 28.6644 94.9079 28.6428 94.7273 28.6428C94.2651 28.6428 93.8028 28.9894 93.8028 29.7045V31.5896ZM97.1718 27.9061C98.2263 27.9061 98.9775 28.6066 98.9775 29.7839C98.9775 30.9612 98.2263 31.6618 97.1718 31.6618C96.1101 31.6618 95.3661 30.9612 95.3661 29.7839C95.3661 28.6066 96.1101 27.9061 97.1718 27.9061ZM97.1718 28.5489C96.5362 28.5489 96.1534 28.9894 96.1534 29.7839C96.1534 30.5784 96.5362 31.019 97.1718 31.019C97.8074 31.019 98.1902 30.5784 98.1902 29.7839C98.1902 28.9894 97.8074 28.5489 97.1718 28.5489ZM102.301 28.5489V26.5049H103.074V31.5896H102.388L102.352 30.9396C102.135 31.3946 101.666 31.6618 101.131 31.6618C100.207 31.6618 99.528 30.9468 99.528 29.7912C99.528 28.6066 100.25 27.9061 101.182 27.9061C101.702 27.9061 102.099 28.1516 102.301 28.5489ZM101.298 30.9973C101.904 30.9973 102.301 30.5279 102.301 29.7406C102.301 29.0039 101.911 28.5633 101.326 28.5633C100.684 28.5633 100.308 29.0256 100.308 29.7839C100.308 30.5423 100.669 30.9973 101.298 30.9973ZM105.368 31.6618C104.653 31.6618 104.047 31.279 104.047 30.3618V27.9783H104.819V30.1595C104.819 30.7879 105.108 30.9901 105.614 30.9901C106.098 30.9901 106.567 30.6723 106.567 29.9284V27.9783H107.34V31.5896H106.654L106.618 31.0118C106.372 31.4596 105.946 31.6618 105.368 31.6618ZM109.932 27.9061C110.741 27.9061 111.253 28.3033 111.492 28.9244L110.762 29.2278C110.625 28.7872 110.365 28.5561 109.917 28.5561C109.282 28.5561 108.899 28.9894 108.899 29.7839C108.899 30.5929 109.282 31.0118 109.917 31.0118C110.416 31.0118 110.661 30.759 110.791 30.3256L111.528 30.5712C111.304 31.2429 110.748 31.6618 109.917 31.6618C108.848 31.6618 108.112 30.9612 108.112 29.7839C108.112 28.6066 108.87 27.9061 109.932 27.9061ZM114.39 30.7807L114.592 31.3801C114.354 31.5463 114.022 31.6618 113.661 31.6618C112.989 31.6618 112.491 31.3513 112.491 30.564V28.6211H111.725V27.9783H112.491V26.8949H113.249V27.9783H114.455V28.6211H113.249V30.4484C113.249 30.7879 113.415 30.9757 113.762 30.9757C114.029 30.9757 114.217 30.9034 114.39 30.7807ZM115.49 26.4471C115.793 26.4471 115.996 26.6421 115.996 26.9454C115.996 27.2488 115.793 27.4438 115.49 27.4438C115.187 27.4438 114.984 27.2488 114.984 26.9454C114.984 26.6421 115.187 26.4471 115.49 26.4471ZM115.1 27.9783H115.873V31.5896H115.1V27.9783ZM118.242 30.8673L119.326 27.9783H120.12L118.661 31.5896H117.795L116.343 27.9783H117.195L118.242 30.8673ZM120.978 26.4471C121.281 26.4471 121.483 26.6421 121.483 26.9454C121.483 27.2488 121.281 27.4438 120.978 27.4438C120.674 27.4438 120.472 27.2488 120.472 26.9454C120.472 26.6421 120.674 26.4471 120.978 26.4471ZM120.588 27.9783H121.36V31.5896H120.588V27.9783ZM124.589 30.7807L124.792 31.3801C124.553 31.5463 124.221 31.6618 123.86 31.6618C123.188 31.6618 122.69 31.3513 122.69 30.564V28.6211H121.924V27.9783H122.69V26.8949H123.448V27.9783H124.654V28.6211H123.448V30.4484C123.448 30.7879 123.614 30.9757 123.961 30.9757C124.228 30.9757 124.416 30.9034 124.589 30.7807ZM126.735 30.7373L127.768 27.9783H128.577L126.973 31.958C126.67 32.7308 126.251 33.0341 125.63 33.0341C125.319 33.0341 124.994 32.9763 124.727 32.8463L124.922 32.1891C125.124 32.283 125.348 32.348 125.608 32.348C125.854 32.348 126.085 32.2758 126.265 31.8496L126.359 31.6185L124.821 27.9783H125.666L126.735 30.7373ZM134.616 29.9139L135.425 30.1812C135.1 31.1562 134.27 31.669 133.266 31.669C131.799 31.669 130.861 30.6651 130.861 29.0472C130.861 27.4294 131.807 26.4254 133.251 26.4254C134.284 26.4254 135.021 26.8949 135.353 27.7327L134.58 28.0649C134.356 27.4582 133.923 27.1549 133.28 27.1549C132.32 27.1549 131.677 27.8266 131.677 29.0472C131.677 30.2462 132.283 30.9396 133.273 30.9396C133.93 30.9396 134.414 30.5857 134.616 29.9139ZM137.651 27.9061C138.706 27.9061 139.457 28.6066 139.457 29.7839C139.457 30.9612 138.706 31.6618 137.651 31.6618C136.589 31.6618 135.845 30.9612 135.845 29.7839C135.845 28.6066 136.589 27.9061 137.651 27.9061ZM137.651 28.5489C137.015 28.5489 136.633 28.9894 136.633 29.7839C136.633 30.5784 137.015 31.019 137.651 31.019C138.287 31.019 138.669 30.5784 138.669 29.7839C138.669 28.9894 138.287 28.5489 137.651 28.5489ZM141.004 31.5896H140.231V27.9783H140.917L140.953 28.5561C141.213 28.1083 141.647 27.9061 142.123 27.9061C142.636 27.9061 143.113 28.1372 143.337 28.6139C143.561 28.1227 144.102 27.9061 144.579 27.9061C145.28 27.9061 145.915 28.3322 145.915 29.2422V31.5896H145.143V29.3867C145.143 28.8089 144.825 28.5778 144.399 28.5778C143.893 28.5778 143.46 28.9461 143.46 29.6323V31.5896H142.687V29.3867C142.687 28.8089 142.369 28.5778 141.943 28.5778C141.51 28.5778 141.004 28.8883 141.004 29.6684V31.5896ZM148.883 27.9061C149.786 27.9061 150.436 28.6211 150.436 29.7767C150.436 30.9612 149.721 31.6618 148.825 31.6618C148.298 31.6618 147.886 31.4235 147.662 31.0407V32.9908H146.889V27.9783H147.576L147.612 28.6066C147.843 28.1877 148.305 27.9061 148.883 27.9061ZM148.659 30.9973C149.28 30.9973 149.649 30.5568 149.649 29.7839C149.649 29.0111 149.295 28.5633 148.673 28.5633C148.067 28.5633 147.662 29.0328 147.662 29.7839C147.662 30.5279 148.052 30.9973 148.659 30.9973ZM154.369 31.0407C154.427 31.0407 154.492 31.0407 154.543 31.0262L154.507 31.5752C154.42 31.6257 154.304 31.6474 154.153 31.6474C153.784 31.6474 153.496 31.4885 153.387 31.1707C153.142 31.5029 152.708 31.6618 152.246 31.6618C151.43 31.6618 150.968 31.2285 150.968 30.5351C150.968 29.8489 151.48 29.4228 152.304 29.4228H153.322V29.2278C153.322 28.7583 153.004 28.5272 152.549 28.5272C152.058 28.5272 151.813 28.715 151.661 29.105L150.96 28.8956C151.163 28.2744 151.683 27.9061 152.578 27.9061C153.416 27.9061 154.095 28.2816 154.095 29.1195V30.7734C154.095 30.954 154.189 31.0407 154.369 31.0407ZM152.419 31.0623C152.824 31.0623 153.322 30.8673 153.322 30.2895V30.0006H152.47C151.972 30.0006 151.733 30.1812 151.733 30.4918C151.733 30.8168 151.921 31.0623 152.419 31.0623ZM157.021 27.9061C157.794 27.9061 158.4 28.3466 158.4 29.2639V31.5896H157.628V29.4878C157.628 28.8089 157.288 28.5778 156.847 28.5778C156.378 28.5778 155.872 28.8739 155.872 29.6684V31.5896H155.1V27.9783H155.786L155.815 28.585C156.06 28.1227 156.501 27.9061 157.021 27.9061ZM160.704 30.7373L161.737 27.9783H162.546L160.942 31.958C160.639 32.7308 160.22 33.0341 159.599 33.0341C159.288 33.0341 158.963 32.9763 158.696 32.8463L158.891 32.1891C159.093 32.283 159.317 32.348 159.577 32.348C159.823 32.348 160.054 32.2758 160.234 31.8496L160.328 31.6185L158.79 27.9783H159.635L160.704 30.7373Z" fill="#FAFAFA"/>
</svg>
